<?xml version="1.0" standalone="no"?>
<!DOCTYPE svg PUBLIC "-//W3C//DTD SVG 20010904//EN"
 "http://www.w3.org/TR/2001/REC-SVG-20010904/DTD/svg10.dtd">
<svg version="1.0" xmlns="http://www.w3.org/2000/svg"
 width="100%" height="100%" viewBox="0 0 512.000000 512.000000"
 preserveAspectRatio="xMidYMid meet">

<g transform="translate(0.000000,512.000000) scale(0.100000,-0.100000)"
fill="#000000" stroke="none">
<path d="M2320 5110 c-601 -59 -1147 -316 -1570 -740 -643 -642 -894 -1563
-666 -2444 88 -342 264 -689 492 -976 84 -105 272 -294 378 -380 365 -295 809
-486 1286 -551 124 -17 496 -17 620 0 488 67 930 257 1310 565 96 77 289 270
366 366 308 380 498 822 565 1310 17 124 17 496 0 620 -54 398 -191 764 -405
1084 -109 163 -186 257 -326 396 -207 207 -424 363 -684 490 -261 128 -478
197 -752 240 -146 23 -475 34 -614 20z m525 -914 c652 -109 1160 -593 1313
-1251 53 -228 75 -518 48 -645 -49 -231 -234 -417 -461 -465 -96 -20 -178 -19
-270 5 -105 27 -196 80 -278 162 l-69 68 -58 -53 c-303 -273 -755 -258 -1036
35 -70 72 -119 146 -156 233 -41 97 -53 162 -53 285 0 165 33 275 121 410 222
341 672 438 1019 222 50 -31 50 -31 56 -9 20 75 81 127 149 127 45 0 107 -35
127 -73 16 -29 18 -75 23 -467 5 -418 6 -437 26 -481 28 -60 94 -125 151 -151
173 -77 373 24 414 209 16 70 -1 308 -31 458 -125 608 -558 1022 -1145 1094
-413 50 -818 -91 -1116 -388 -456 -456 -527 -1158 -172 -1696 88 -133 245
-290 378 -378 356 -235 796 -289 1200 -147 107 38 201 87 327 170 88 59 96 62
141 57 108 -10 174 -140 115 -227 -27 -39 -158 -131 -278 -193 -381 -201 -853
-240 -1263 -106 -510 167 -899 556 -1066 1066 -105 320 -105 686 0 1006 204
624 742 1063 1394 1137 106 12 337 4 450 -14z"/>
<path d="M2481 3009 c-227 -44 -391 -278 -353 -505 32 -196 180 -344 376 -376
289 -48 556 219 508 508 -42 255 -281 422 -531 373z"/>
</g>
</svg>
