<?xml version="1.0" ?><svg xmlns="http://www.w3.org/2000/svg" xmlns:xlink="http://www.w3.org/1999/xlink" version="1.1" id="Layer_1" width="100%" height="100%" viewBox="0 0 128 128" enable-background="new 0 0 128 128" xml:space="preserve"><path d="M93.405,59.512c-0.529-0.254-1.067-0.498-1.612-0.732C90.845,41.303,81.295,31.298,65.26,31.195c-0.073,0-0.145,0-0.218,0  c-7.079,0-13.278,2.23-18.014,6.393c-2.656,2.335-2.459,6.525,0.457,8.525l0,0c2.001,1.372,4.69,1.251,6.52-0.341  c3.453-3.005,7.715-3.736,11.042-3.736c0.049,0,0.098,0,0.147,0c5.28,0.034,9.264,1.569,11.842,4.562  c1.877,2.179,3.132,5.191,3.753,8.992c-4.681-0.796-9.744-1.04-15.155-0.73c-15.245,0.878-25.046,9.77-24.388,22.124  c0.334,6.267,3.456,11.658,8.791,15.18c4.51,2.977,10.32,4.433,16.357,4.104c7.973-0.437,14.228-3.479,18.591-9.041  c3.314-4.224,5.41-9.698,6.335-16.595c3.8,2.293,6.616,5.311,8.171,8.938c2.645,6.166,2.799,16.3-5.47,24.561  c-7.244,7.237-15.952,10.368-29.112,10.465c-14.598-0.108-25.639-4.79-32.817-13.915C25.371,92.139,21.897,79.797,21.768,64  c0.13-15.797,3.603-28.139,10.325-36.684c7.178-9.125,18.218-13.807,32.817-13.915c14.704,0.109,25.937,4.813,33.39,13.983  c2.756,3.391,5.002,7.442,6.718,12.058c0.971,2.612,3.727,4.094,6.419,3.376h0c3.022-0.806,4.746-4.037,3.665-6.972  c-2.138-5.805-5.014-10.943-8.622-15.383C96.925,8.707,82.951,2.684,64.946,2.559h-0.072C46.905,2.683,33.088,8.73,23.805,20.53  c-8.26,10.501-12.521,25.112-12.664,43.427V64v0.043c0.143,18.315,4.404,32.926,12.664,43.427c9.283,11.8,23.1,17.847,41.069,17.971  h0.072c15.975-0.111,27.235-4.293,36.512-13.561c12.137-12.125,11.771-27.323,7.771-36.653  C106.358,68.536,100.887,63.102,93.405,59.512z M65.823,85.445c-6.682,0.376-13.623-2.623-13.966-9.047  c-0.254-4.763,3.39-10.078,14.376-10.711c1.258-0.073,2.493-0.108,3.706-0.108c3.99,0,7.724,0.388,11.118,1.13  C79.79,82.519,72.365,85.086,65.823,85.445z"/></svg>