<?xml version="1.0" ?><svg viewBox="0 0 32 32" xmlns="http://www.w3.org/2000/svg"><title/><g data-name="Layer 4" id="Layer_4"><path d="M26.88,5H25.12A4.13,4.13,0,0,0,21,9.12V22.88A4.13,4.13,0,0,0,25.12,27h1.76A4.13,4.13,0,0,0,31,22.88V9.12A4.13,4.13,0,0,0,26.88,5ZM29,22.88A2.12,2.12,0,0,1,26.88,25H25.12A2.12,2.12,0,0,1,23,22.88V9.12A2.12,2.12,0,0,1,25.12,7h1.76A2.12,2.12,0,0,1,29,9.12Z"/><path d="M22.51,27.26a13,13,0,1,1,0-22.49,1,1,0,1,0,1-1.72A15,15,0,1,0,23.51,29a1,1,0,0,0,.37-1.37A1,1,0,0,0,22.51,27.26Z"/><path d="M26,9a1,1,0,0,0-1,1v3a1,1,0,0,0,2,0V10A1,1,0,0,0,26,9Z"/></g></svg>