<?xml version="1.0" encoding="utf-8"?>
<!-- Generator: Adobe Illustrator 26.4.1, SVG Export Plug-In . SVG Version: 6.00 Build 0)  -->
<svg version="1.1" id="katman_1" xmlns="http://www.w3.org/2000/svg" xmlns:xlink="http://www.w3.org/1999/xlink" x="0px" y="0px"
	 viewBox="0 0 480 480" style="enable-background:new 0 0 480 480;" xml:space="preserve">
<style type="text/css">
	.st0{fill:#FFFFFF;}
</style>
<path d="M80.7,24.3h318.5c31.2,0,56.4,25.3,56.4,56.4v318.5c0,31.2-25.3,56.4-56.4,56.4H80.7c-31.2,0-56.4-25.3-56.4-56.4V80.7
	C24.3,49.6,49.6,24.3,80.7,24.3z"/>
<path class="st0" d="M315.8,228.2c42.3,17.8,63.1,60.4,49.3,104.5c-9.4,30.1-36.2,54.4-64.9,65.4c-36.2,13.9-84.8,13-120.5-1.8
	C107.3,366.3,90.4,283,97.6,213.7c5-48.5,25.2-95.8,69.8-120.1C201,75.2,244,72.6,280.8,80.3c38.2,8,69.2,30.6,88,64.8
	c5.8,10.5,10.5,22.1,14,35c0.1,0.5-0.1,1-0.6,1.1c0,0,0,0,0,0l-26.6,7c-0.5,0.1-1-0.2-1.1-0.6c0,0,0,0,0,0
	c-4-15.2-10.3-28.7-19-40.5c-27.2-37-77.1-46.9-120.1-39.2c-50.7,9.1-78.7,44.7-86.9,93.6c-6.7,39.7-4.6,85.7,13.7,122.3
	c15.4,30.8,43.3,48.1,76.9,52.9c18.1,2.5,35.8,2.2,53.1-1c24.8-4.6,51.4-21,62.2-44.5c7-15.2,7.7-34.5,0-49.6
	c-4.4-8.6-11-15.5-19.7-20.7c-0.4-0.3-1-0.1-1.2,0.3c-0.1,0.1-0.1,0.2-0.1,0.3c-1,7.4-2.7,14.7-5.2,21.8
	c-3.6,10.1-8.8,18.8-15.7,25.9c-23.2,23.9-63.6,26-90.9,8.8c-21.8-13.8-30-42-19.6-65.2c10.8-24,37.2-34.4,62.3-35.6
	c14.2-0.7,27.3-0.1,39.4,1.6c0.5,0.1,0.9-0.3,1-0.8c0-0.1,0-0.2,0-0.3c-1.1-5.5-2.4-10-4-13.5c-8.4-18.5-27.3-23.4-46.2-21
	c-12.1,1.5-21.6,7.2-28.7,17c-0.3,0.4-0.8,0.5-1.2,0.2l-22.6-15.4c-0.4-0.3-0.5-0.8-0.2-1.3c0,0,0,0,0,0
	c12.1-17,28.5-26.9,49.3-29.6c17.2-2.3,36.5,0.4,51.5,9.5c22.5,13.8,30.5,38.6,32.5,63.7C315.3,227.8,315.5,228.1,315.8,228.2z
	 M207.9,267.4c-4.5,15.1,5.9,27,20,30.6c19.8,5,41.8,0.6,51.2-19.7c3.7-8,5.9-17.4,6.6-28.1c0-0.5-0.3-0.9-0.7-0.9
	c-14.7-2.9-29.8-3.5-45.2-2C227.3,248.6,211.8,254.3,207.9,267.4z"/>
</svg>
